[37m2026-04-01 03:07:12.979[39m[0m[0m	[32m[1mDEBUG[22m[39m[0m[0m	[37musr/lib/node_modules/@getpochi/cli/dist/cli.js:546423[39m[0m[0m[1m[37m	Pochi[39m[22m[0m[0m	pochi v0.6.6
[37m2026-04-01 03:07:13.488[39m[0m[0m	[32m[1mDEBUG[22m[39m[0m[0m	[37musr/lib/node_modules/@getpochi/cli/dist/cli.js:509823[39m[0m[0m[1m[37m	loadAgents[39m[22m[0m[0m	Loaded 5 custom agents (5 valid, 0 invalid)
[37m2026-04-01 03:07:13.488[39m[0m[0m	[32m[1mDEBUG[22m[39m[0m[0m	[37musr/lib/node_modules/@getpochi/cli/dist/cli.js:509909[39m[0m[0m[1m[37m	loadSkills[39m[22m[0m[0m	Loaded 2 skills (2 valid, 0 invalid)
[37m2026-04-01 03:07:13.570[39m[0m[0m	[32m[1mDEBUG[22m[39m[0m[0m	[37musr/lib/node_modules/@getpochi/cli/dist/cli.js:526152[39m[0m[0m[1m[37m	MCPHub[39m[22m[0m[0m	MCP servers configuration changed via signal:
[37m2026-04-01 03:07:13.570[39m[0m[0m	[32m[1mDEBUG[22m[39m[0m[0m	[37musr/lib/node_modules/@getpochi/cli/dist/cli.js:526158[39m[0m[0m[1m[37m	MCPHub[39m[22m[0m[0m	Build MCPHub Status
[37m2026-04-01 03:07:14.417[39m[0m[0m	[32m[1mDEBUG[22m[39m[0m[0m	[37musr/lib/node_modules/@getpochi/cli/dist/cli.js:545870[39m[0m[0m[1m[37m	TaskRunner[39m[22m[0m[0m	Starting TaskRunner...
[37m2026-04-01 03:07:14.463[39m[0m[0m	[32m[1mDEBUG[22m[39m[0m[0m	[37musr/lib/node_modules/@getpochi/cli/dist/cli.js:540293[39m[0m[0m[1m[37m	generateTaskTitle[39m[22m[0m[0m	Generating task title, old: null, new: You are a software tester assigned to verify a test case using the agent browser.
[37m2026-04-01 03:07:33.285[39m[0m[0m	[32m[1mDEBUG[22m[39m[0m[0m	[37musr/lib/node_modules/@getpochi/cli/dist/cli.js:540293[39m[0m[0m[1m[37m	generateTaskTitle[39m[22m[0m[0m	Generating task title, old: You are a software tester assigned to verify a test case using the agent browser., new: Verify task priority toggling in Wasp application
[37m2026-04-01 03:07:34.505[39m[0m[0m	[32m[1mDEBUG[22m[39m[0m[0m	[37musr/lib/node_modules/@getpochi/cli/dist/cli.js:545870[39m[0m[0m[1m[37m	TaskRunner[39m[22m[0m[0m	Starting TaskRunner...
[37m2026-04-01 03:07:34.579[39m[0m[0m	[32m[1mDEBUG[22m[39m[0m[0m	[37musr/lib/node_modules/@getpochi/cli/dist/cli.js:540293[39m[0m[0m[1m[37m	generateTaskTitle[39m[22m[0m[0m	Generating task title, old: null, new: Please perform the following verification steps on http://localhost:3000:
[37m2026-04-01 03:07:51.757[39m[0m[0m	[32m[1mDEBUG[22m[39m[0m[0m	[37musr/lib/node_modules/@getpochi/cli/dist/cli.js:540293[39m[0m[0m[1m[37m	generateTaskTitle[39m[22m[0m[0m	Generating task title, old: Please perform the following verification steps on http://localhost:3000:, new: Verify task creation and priority toggling on localhost
[37m2026-04-01 03:08:00.874[39m[0m[0m	[32m[1mDEBUG[22m[39m[0m[0m	[37musr/lib/node_modules/@getpochi/cli/dist/cli.js:545482[39m[0m[0m[1m[37m	newTask[39m[22m[0m[0m	Browser stream webSocket connected.
[37m2026-04-01 03:08:00.902[39m[0m[0m	[32m[1mDEBUG[22m[39m[0m[0m	[37musr/lib/node_modules/@getpochi/cli/dist/cli.js:497856[39m[0m[0m[1m[37m	MjpegToMp4[39m[22m[0m[0m	Saved frame 0: 1775012880.888062
[37m2026-04-01 03:08:06.693[39m[0m[0m	[32m[1mDEBUG[22m[39m[0m[0m	[37musr/lib/node_modules/@getpochi/cli/dist/cli.js:497856[39m[0m[0m[1m[37m	MjpegToMp4[39m[22m[0m[0m	Saved frame 1: 1775012886.67675
[37m2026-04-01 03:08:06.701[39m[0m[0m	[32m[1mDEBUG[22m[39m[0m[0m	[37musr/lib/node_modules/@getpochi/cli/dist/cli.js:497856[39m[0m[0m[1m[37m	MjpegToMp4[39m[22m[0m[0m	Saved frame 2: 1775012886.691161
[37m2026-04-01 03:08:06.895[39m[0m[0m	[32m[1mDEBUG[22m[39m[0m[0m	[37musr/lib/node_modules/@getpochi/cli/dist/cli.js:497856[39m[0m[0m[1m[37m	MjpegToMp4[39m[22m[0m[0m	Saved frame 3: 1775012886.88392
[37m2026-04-01 03:08:06.898[39m[0m[0m	[32m[1mDEBUG[22m[39m[0m[0m	[37musr/lib/node_modules/@getpochi/cli/dist/cli.js:497856[39m[0m[0m[1m[37m	MjpegToMp4[39m[22m[0m[0m	Saved frame 4: 1775012886.892686
[37m2026-04-01 03:08:06.907[39m[0m[0m	[32m[1mDEBUG[22m[39m[0m[0m	[37musr/lib/node_modules/@getpochi/cli/dist/cli.js:497856[39m[0m[0m[1m[37m	MjpegToMp4[39m[22m[0m[0m	Saved frame 5: 1775012886.901653
[37m2026-04-01 03:08:06.932[39m[0m[0m	[32m[1mDEBUG[22m[39m[0m[0m	[37musr/lib/node_modules/@getpochi/cli/dist/cli.js:497856[39m[0m[0m[1m[37m	MjpegToMp4[39m[22m[0m[0m	Saved frame 6: 1775012886.922706
[37m2026-04-01 03:08:15.428[39m[0m[0m	[32m[1mDEBUG[22m[39m[0m[0m	[37musr/lib/node_modules/@getpochi/cli/dist/cli.js:497856[39m[0m[0m[1m[37m	MjpegToMp4[39m[22m[0m[0m	Saved frame 7: 1775012895.415025
[37m2026-04-01 03:08:15.435[39m[0m[0m	[32m[1mDEBUG[22m[39m[0m[0m	[37musr/lib/node_modules/@getpochi/cli/dist/cli.js:497856[39m[0m[0m[1m[37m	MjpegToMp4[39m[22m[0m[0m	Saved frame 8: 1775012895.426126
[37m2026-04-01 03:08:15.445[39m[0m[0m	[32m[1mDEBUG[22m[39m[0m[0m	[37musr/lib/node_modules/@getpochi/cli/dist/cli.js:497856[39m[0m[0m[1m[37m	MjpegToMp4[39m[22m[0m[0m	Saved frame 9: 1775012895.437054
[37m2026-04-01 03:08:15.458[39m[0m[0m	[32m[1mDEBUG[22m[39m[0m[0m	[37musr/lib/node_modules/@getpochi/cli/dist/cli.js:497856[39m[0m[0m[1m[37m	MjpegToMp4[39m[22m[0m[0m	Saved frame 10: 1775012895.451667
[37m2026-04-01 03:08:15.475[39m[0m[0m	[32m[1mDEBUG[22m[39m[0m[0m	[37musr/lib/node_modules/@getpochi/cli/dist/cli.js:497856[39m[0m[0m[1m[37m	MjpegToMp4[39m[22m[0m[0m	Saved frame 11: 1775012895.469063
[37m2026-04-01 03:08:15.499[39m[0m[0m	[32m[1mDEBUG[22m[39m[0m[0m	[37musr/lib/node_modules/@getpochi/cli/dist/cli.js:497856[39m[0m[0m[1m[37m	MjpegToMp4[39m[22m[0m[0m	Saved frame 12: 1775012895.486808
[37m2026-04-01 03:08:15.512[39m[0m[0m	[32m[1mDEBUG[22m[39m[0m[0m	[37musr/lib/node_modules/@getpochi/cli/dist/cli.js:497856[39m[0m[0m[1m[37m	MjpegToMp4[39m[22m[0m[0m	Saved frame 13: 1775012895.502306
[37m2026-04-01 03:08:15.532[39m[0m[0m	[32m[1mDEBUG[22m[39m[0m[0m	[37musr/lib/node_modules/@getpochi/cli/dist/cli.js:497856[39m[0m[0m[1m[37m	MjpegToMp4[39m[22m[0m[0m	Saved frame 14: 1775012895.520122
[37m2026-04-01 03:08:15.548[39m[0m[0m	[32m[1mDEBUG[22m[39m[0m[0m	[37musr/lib/node_modules/@getpochi/cli/dist/cli.js:497856[39m[0m[0m[1m[37m	MjpegToMp4[39m[22m[0m[0m	Saved frame 15: 1775012895.536298
[37m2026-04-01 03:08:15.600[39m[0m[0m	[32m[1mDEBUG[22m[39m[0m[0m	[37musr/lib/node_modules/@getpochi/cli/dist/cli.js:497856[39m[0m[0m[1m[37m	MjpegToMp4[39m[22m[0m[0m	Saved frame 16: 1775012895.586177
[37m2026-04-01 03:08:15.600[39m[0m[0m	[32m[1mDEBUG[22m[39m[0m[0m	[37musr/lib/node_modules/@getpochi/cli/dist/cli.js:497856[39m[0m[0m[1m[37m	MjpegToMp4[39m[22m[0m[0m	Saved frame 16: 1775012895.56914
[37m2026-04-01 03:08:15.600[39m[0m[0m	[32m[1mDEBUG[22m[39m[0m[0m	[37musr/lib/node_modules/@getpochi/cli/dist/cli.js:497856[39m[0m[0m[1m[37m	MjpegToMp4[39m[22m[0m[0m	Saved frame 16: 1775012895.55193
[37m2026-04-01 03:08:15.618[39m[0m[0m	[32m[1mDEBUG[22m[39m[0m[0m	[37musr/lib/node_modules/@getpochi/cli/dist/cli.js:497856[39m[0m[0m[1m[37m	MjpegToMp4[39m[22m[0m[0m	Saved frame 19: 1775012895.603105
[37m2026-04-01 03:08:15.624[39m[0m[0m	[32m[1mDEBUG[22m[39m[0m[0m	[37musr/lib/node_modules/@getpochi/cli/dist/cli.js:497856[39m[0m[0m[1m[37m	MjpegToMp4[39m[22m[0m[0m	Saved frame 20: 1775012895.618737
[37m2026-04-01 03:08:21.778[39m[0m[0m	[32m[1mDEBUG[22m[39m[0m[0m	[37musr/lib/node_modules/@getpochi/cli/dist/cli.js:497856[39m[0m[0m[1m[37m	MjpegToMp4[39m[22m[0m[0m	Saved frame 21: 1775012901.77124
[37m2026-04-01 03:08:27.934[39m[0m[0m	[32m[1mDEBUG[22m[39m[0m[0m	[37musr/lib/node_modules/@getpochi/cli/dist/cli.js:497856[39m[0m[0m[1m[37m	MjpegToMp4[39m[22m[0m[0m	Saved frame 22: 1775012907.927856
[37m2026-04-01 03:08:27.986[39m[0m[0m	[32m[1mDEBUG[22m[39m[0m[0m	[37musr/lib/node_modules/@getpochi/cli/dist/cli.js:497856[39m[0m[0m[1m[37m	MjpegToMp4[39m[22m[0m[0m	Saved frame 23: 1775012907.973084
[37m2026-04-01 03:08:28.194[39m[0m[0m	[32m[1mDEBUG[22m[39m[0m[0m	[37musr/lib/node_modules/@getpochi/cli/dist/cli.js:497856[39m[0m[0m[1m[37m	MjpegToMp4[39m[22m[0m[0m	Saved frame 24: 1775012908.141496
[37m2026-04-01 03:08:28.194[39m[0m[0m	[32m[1mDEBUG[22m[39m[0m[0m	[37musr/lib/node_modules/@getpochi/cli/dist/cli.js:497856[39m[0m[0m[1m[37m	MjpegToMp4[39m[22m[0m[0m	Saved frame 24: 1775012908.15258
[37m2026-04-01 03:08:28.194[39m[0m[0m	[32m[1mDEBUG[22m[39m[0m[0m	[37musr/lib/node_modules/@getpochi/cli/dist/cli.js:497856[39m[0m[0m[1m[37m	MjpegToMp4[39m[22m[0m[0m	Saved frame 24: 1775012908.169658
[37m2026-04-01 03:08:28.194[39m[0m[0m	[32m[1mDEBUG[22m[39m[0m[0m	[37musr/lib/node_modules/@getpochi/cli/dist/cli.js:497856[39m[0m[0m[1m[37m	MjpegToMp4[39m[22m[0m[0m	Saved frame 24: 1775012908.132058
[37m2026-04-01 03:08:28.207[39m[0m[0m	[32m[1mDEBUG[22m[39m[0m[0m	[37musr/lib/node_modules/@getpochi/cli/dist/cli.js:497856[39m[0m[0m[1m[37m	MjpegToMp4[39m[22m[0m[0m	Saved frame 28: 1775012908.18644
[37m2026-04-01 03:08:28.207[39m[0m[0m	[32m[1mDEBUG[22m[39m[0m[0m	[37musr/lib/node_modules/@getpochi/cli/dist/cli.js:497856[39m[0m[0m[1m[37m	MjpegToMp4[39m[22m[0m[0m	Saved frame 29: 1775012908.201635
[37m2026-04-01 03:08:28.227[39m[0m[0m	[32m[1mDEBUG[22m[39m[0m[0m	[37musr/lib/node_modules/@getpochi/cli/dist/cli.js:497856[39m[0m[0m[1m[37m	MjpegToMp4[39m[22m[0m[0m	Saved frame 30: 1775012908.216754
[37m2026-04-01 03:08:28.246[39m[0m[0m	[32m[1mDEBUG[22m[39m[0m[0m	[37musr/lib/node_modules/@getpochi/cli/dist/cli.js:497856[39m[0m[0m[1m[37m	MjpegToMp4[39m[22m[0m[0m	Saved frame 31: 1775012908.234607
[37m2026-04-01 03:08:28.266[39m[0m[0m	[32m[1mDEBUG[22m[39m[0m[0m	[37musr/lib/node_modules/@getpochi/cli/dist/cli.js:497856[39m[0m[0m[1m[37m	MjpegToMp4[39m[22m[0m[0m	Saved frame 32: 1775012908.255343
[37m2026-04-01 03:08:28.277[39m[0m[0m	[32m[1mDEBUG[22m[39m[0m[0m	[37musr/lib/node_modules/@getpochi/cli/dist/cli.js:497856[39m[0m[0m[1m[37m	MjpegToMp4[39m[22m[0m[0m	Saved frame 33: 1775012908.269625
[37m2026-04-01 03:08:28.291[39m[0m[0m	[32m[1mDEBUG[22m[39m[0m[0m	[37musr/lib/node_modules/@getpochi/cli/dist/cli.js:497856[39m[0m[0m[1m[37m	MjpegToMp4[39m[22m[0m[0m	Saved frame 34: 1775012908.28532
[37m2026-04-01 03:08:28.306[39m[0m[0m	[32m[1mDEBUG[22m[39m[0m[0m	[37musr/lib/node_modules/@getpochi/cli/dist/cli.js:497856[39m[0m[0m[1m[37m	MjpegToMp4[39m[22m[0m[0m	Saved frame 35: 1775012908.301574
[37m2026-04-01 03:08:28.330[39m[0m[0m	[32m[1mDEBUG[22m[39m[0m[0m	[37musr/lib/node_modules/@getpochi/cli/dist/cli.js:497856[39m[0m[0m[1m[37m	MjpegToMp4[39m[22m[0m[0m	Saved frame 36: 1775012908.320265
[37m2026-04-01 03:09:15.685[39m[0m[0m	[32m[1mDEBUG[22m[39m[0m[0m	[37musr/lib/node_modules/@getpochi/cli/dist/cli.js:497906[39m[0m[0m[1m[37m	MjpegToMp4[39m[22m[0m[0m	[ffmpeg] start: ffmpeg -safe 0 -f concat -i /tmp/pochi-mjpeg2mp4-l2sv3P/frames.ffconcat -y -vcodec libx264 -filter:v scale=854:480:force_original_aspect_ratio=decrease,pad=854:480:(ow-iw)/2:(oh-ih)/2:color=black -pix_fmt yuv420p -movflags +faststart -preset veryfast -crf 23 -an -f mp4 /tmp/pochi-browser-agent-video-840dc677-aa01-4d1d-8d81-7f124acb8855.mp4
[37m2026-04-01 03:09:15.703[39m[0m[0m	[32m[1mDEBUG[22m[39m[0m[0m	[37musr/lib/node_modules/@getpochi/cli/dist/cli.js:497906[39m[0m[0m[1m[37m	MjpegToMp4[39m[22m[0m[0m	[ffmpeg] stderr: ffmpeg version 6.1.1-3ubuntu5 Copyright (c) 2000-2023 the FFmpeg developers
[37m2026-04-01 03:09:15.703[39m[0m[0m	[32m[1mDEBUG[22m[39m[0m[0m	[37musr/lib/node_modules/@getpochi/cli/dist/cli.js:497906[39m[0m[0m[1m[37m	MjpegToMp4[39m[22m[0m[0m	[ffmpeg] stderr:   built with gcc 13 (Ubuntu 13.2.0-23ubuntu3)
[37m2026-04-01 03:09:15.703[39m[0m[0m	[32m[1mDEBUG[22m[39m[0m[0m	[37musr/lib/node_modules/@getpochi/cli/dist/cli.js:497906[39m[0m[0m[1m[37m	MjpegToMp4[39m[22m[0m[0m	[ffmpeg] stderr:   configuration: --prefix=/usr --extra-version=3ubuntu5 --toolchain=hardened --libdir=/usr/lib/x86_64-linux-gnu --incdir=/usr/include/x86_64-linux-gnu --arch=amd64 --enable-gpl --disable-stripping --disable-omx --enable-gnutls --enable-libaom --enable-libass --enable-libbs2b --enable-libcaca --enable-libcdio --enable-libcodec2 --enable-libdav1d --enable-libflite --enable-libfontconfig --enable-libfreetype --enable-libfribidi --enable-libglslang --enable-libgme --enable-libgsm --enable-libharfbuzz --enable-libmp3lame --enable-libmysofa --enable-libopenjpeg --enable-libopenmpt --enable-libopus --enable-librubberband --enable-libshine --enable-libsnappy --enable-libsoxr --enable-libspeex --enable-libtheora --enable-libtwolame --enable-libvidstab --enable-libvorbis --enable-libvpx --enable-libwebp --enable-libx265 --enable-libxml2 --enable-libxvid --enable-libzimg --enable-openal --enable-opencl --enable-opengl --disable-sndio --enable-libvpl --disable-libmfx --enable-libdc1394 --enable-libdrm --enable-libiec61883 --enable-chromaprint --enable-frei0r --enable-ladspa --enable-libbluray --enable-libjack --enable-libpulse --enable-librabbitmq --enable-librist --enable-libsrt --enable-libssh --enable-libsvtav1 --enable-libx264 --enable-libzmq --enable-libzvbi --enable-lv2 --enable-sdl2 --enable-libplacebo --enable-librav1e --enable-pocketsphinx --enable-librsvg --enable-libjxl --enable-shared
[37m2026-04-01 03:09:15.703[39m[0m[0m	[32m[1mDEBUG[22m[39m[0m[0m	[37musr/lib/node_modules/@getpochi/cli/dist/cli.js:497906[39m[0m[0m[1m[37m	MjpegToMp4[39m[22m[0m[0m	[ffmpeg] stderr:   libavutil      58. 29.100 / 58. 29.100
[37m2026-04-01 03:09:15.703[39m[0m[0m	[32m[1mDEBUG[22m[39m[0m[0m	[37musr/lib/node_modules/@getpochi/cli/dist/cli.js:497906[39m[0m[0m[1m[37m	MjpegToMp4[39m[22m[0m[0m	[ffmpeg] stderr:   libavcodec     60. 31.102 / 60. 31.102
[37m2026-04-01 03:09:15.704[39m[0m[0m	[32m[1mDEBUG[22m[39m[0m[0m	[37musr/lib/node_modules/@getpochi/cli/dist/cli.js:497906[39m[0m[0m[1m[37m	MjpegToMp4[39m[22m[0m[0m	[ffmpeg] stderr:   libavformat    60. 16.100 / 60. 16.100
[37m2026-04-01 03:09:15.704[39m[0m[0m	[32m[1mDEBUG[22m[39m[0m[0m	[37musr/lib/node_modules/@getpochi/cli/dist/cli.js:497906[39m[0m[0m[1m[37m	MjpegToMp4[39m[22m[0m[0m	[ffmpeg] stderr:   libavdevice    60.  3.100 / 60.  3.100
[37m2026-04-01 03:09:15.704[39m[0m[0m	[32m[1mDEBUG[22m[39m[0m[0m	[37musr/lib/node_modules/@getpochi/cli/dist/cli.js:497906[39m[0m[0m[1m[37m	MjpegToMp4[39m[22m[0m[0m	[ffmpeg] stderr:   libavfilter     9. 12.100 /  9. 12.100
[37m2026-04-01 03:09:15.704[39m[0m[0m	[32m[1mDEBUG[22m[39m[0m[0m	[37musr/lib/node_modules/@getpochi/cli/dist/cli.js:497906[39m[0m[0m[1m[37m	MjpegToMp4[39m[22m[0m[0m	[ffmpeg] stderr:   libswscale      7.  5.100 /  7.  5.100
[37m2026-04-01 03:09:15.704[39m[0m[0m	[32m[1mDEBUG[22m[39m[0m[0m	[37musr/lib/node_modules/@getpochi/cli/dist/cli.js:497906[39m[0m[0m[1m[37m	MjpegToMp4[39m[22m[0m[0m	[ffmpeg] stderr:   libswresample   4. 12.100 /  4. 12.100
[37m2026-04-01 03:09:15.704[39m[0m[0m	[32m[1mDEBUG[22m[39m[0m[0m	[37musr/lib/node_modules/@getpochi/cli/dist/cli.js:497906[39m[0m[0m[1m[37m	MjpegToMp4[39m[22m[0m[0m	[ffmpeg] stderr:   libpostproc    57.  3.100 / 57.  3.100
[37m2026-04-01 03:09:15.704[39m[0m[0m	[32m[1mDEBUG[22m[39m[0m[0m	[37musr/lib/node_modules/@getpochi/cli/dist/cli.js:497906[39m[0m[0m[1m[37m	MjpegToMp4[39m[22m[0m[0m	[ffmpeg] stderr: Input #0, concat, from '/tmp/pochi-mjpeg2mp4-l2sv3P/frames.ffconcat':
[37m2026-04-01 03:09:15.704[39m[0m[0m	[32m[1mDEBUG[22m[39m[0m[0m	[37musr/lib/node_modules/@getpochi/cli/dist/cli.js:497906[39m[0m[0m[1m[37m	MjpegToMp4[39m[22m[0m[0m	[ffmpeg] stderr:   Duration: N/A, start: 0.000000, bitrate: N/A
[37m2026-04-01 03:09:15.704[39m[0m[0m	[32m[1mDEBUG[22m[39m[0m[0m	[37musr/lib/node_modules/@getpochi/cli/dist/cli.js:497906[39m[0m[0m[1m[37m	MjpegToMp4[39m[22m[0m[0m	[ffmpeg] stderr:   Stream #0:0: Video: mjpeg (Baseline), yuvj420p(pc, bt470bg/unknown/unknown), 1280x720 [SAR 1:1 DAR 16:9], 25 fps, 25 tbr, 25 tbn
[37m2026-04-01 03:09:15.704[39m[0m[0m	[32m[1mDEBUG[22m[39m[0m[0m	[37musr/lib/node_modules/@getpochi/cli/dist/cli.js:497906[39m[0m[0m[1m[37m	MjpegToMp4[39m[22m[0m[0m	[ffmpeg] stderr: Stream mapping:
[37m2026-04-01 03:09:15.704[39m[0m[0m	[32m[1mDEBUG[22m[39m[0m[0m	[37musr/lib/node_modules/@getpochi/cli/dist/cli.js:497906[39m[0m[0m[1m[37m	MjpegToMp4[39m[22m[0m[0m	[ffmpeg] stderr:   Stream #0:0 -> #0:0 (mjpeg (native) -> h264 (libx264))
[37m2026-04-01 03:09:15.704[39m[0m[0m	[32m[1mDEBUG[22m[39m[0m[0m	[37musr/lib/node_modules/@getpochi/cli/dist/cli.js:497906[39m[0m[0m[1m[37m	MjpegToMp4[39m[22m[0m[0m	[ffmpeg] stderr: Press [q] to stop, [?] for help
[37m2026-04-01 03:09:15.706[39m[0m[0m	[32m[1mDEBUG[22m[39m[0m[0m	[37musr/lib/node_modules/@getpochi/cli/dist/cli.js:497906[39m[0m[0m[1m[37m	MjpegToMp4[39m[22m[0m[0m	[ffmpeg] stderr: [swscaler @ 0x55ad2abe7600] deprecated pixel format used, make sure you did set range correctly
[37m2026-04-01 03:09:15.709[39m[0m[0m	[32m[1mDEBUG[22m[39m[0m[0m	[37musr/lib/node_modules/@getpochi/cli/dist/cli.js:497906[39m[0m[0m[1m[37m	MjpegToMp4[39m[22m[0m[0m	[ffmpeg] stderr: [swscaler @ 0x55ad2abf7b00] deprecated pixel format used, make sure you did set range correctly
[37m2026-04-01 03:09:15.718[39m[0m[0m	[32m[1mDEBUG[22m[39m[0m[0m	[37musr/lib/node_modules/@getpochi/cli/dist/cli.js:497906[39m[0m[0m[1m[37m	MjpegToMp4[39m[22m[0m[0m	[ffmpeg] stderr:     Last message repeated 2 times
[37m2026-04-01 03:09:15.718[39m[0m[0m	[32m[1mDEBUG[22m[39m[0m[0m	[37musr/lib/node_modules/@getpochi/cli/dist/cli.js:497906[39m[0m[0m[1m[37m	MjpegToMp4[39m[22m[0m[0m	[ffmpeg] stderr: [libx264 @ 0x55ad2abc9f80] using SAR=2560/2559
[37m2026-04-01 03:09:15.718[39m[0m[0m	[32m[1mDEBUG[22m[39m[0m[0m	[37musr/lib/node_modules/@getpochi/cli/dist/cli.js:497906[39m[0m[0m[1m[37m	MjpegToMp4[39m[22m[0m[0m	[ffmpeg] stderr: [libx264 @ 0x55ad2abc9f80] using cpu capabilities: MMX2 SSE2Fast SSSE3 SSE4.2 AVX FMA3 BMI2 AVX2
[37m2026-04-01 03:09:15.719[39m[0m[0m	[32m[1mDEBUG[22m[39m[0m[0m	[37musr/lib/node_modules/@getpochi/cli/dist/cli.js:497906[39m[0m[0m[1m[37m	MjpegToMp4[39m[22m[0m[0m	[ffmpeg] stderr: [libx264 @ 0x55ad2abc9f80] profile High, level 3.0, 4:2:0, 8-bit
[37m2026-04-01 03:09:15.719[39m[0m[0m	[32m[1mDEBUG[22m[39m[0m[0m	[37musr/lib/node_modules/@getpochi/cli/dist/cli.js:497906[39m[0m[0m[1m[37m	MjpegToMp4[39m[22m[0m[0m	[ffmpeg] stderr: [libx264 @ 0x55ad2abc9f80] 264 - core 164 r3108 31e19f9 - H.264/MPEG-4 AVC codec - Copyleft 2003-2023 - http://www.videolan.org/x264.html - options: cabac=1 ref=1 deblock=1:0:0 analyse=0x3:0x113 me=hex subme=2 psy=1 psy_rd=1.00:0.00 mixed_ref=0 me_range=16 chroma_me=1 trellis=0 8x8dct=1 cqm=0 deadzone=21,11 fast_pskip=1 chroma_qp_offset=0 threads=15 lookahead_threads=3 sliced_threads=0 nr=0 decimate=1 interlaced=0 bluray_compat=0 constrained_intra=0 bframes=3 b_pyramid=2 b_adapt=1 b_bias=0 direct=1 weightb=1 open_gop=0 weightp=1 keyint=250 keyint_min=25 scenecut=40 intra_refresh=0 rc_lookahead=10 rc=crf mbtree=1 crf=23.0 qcomp=0.60 qpmin=0 qpmax=69 qpstep=4 ip_ratio=1.40 aq=1:1.00
[37m2026-04-01 03:09:15.719[39m[0m[0m	[32m[1mDEBUG[22m[39m[0m[0m	[37musr/lib/node_modules/@getpochi/cli/dist/cli.js:497906[39m[0m[0m[1m[37m	MjpegToMp4[39m[22m[0m[0m	[ffmpeg] stderr: Output #0, mp4, to '/tmp/pochi-browser-agent-video-840dc677-aa01-4d1d-8d81-7f124acb8855.mp4':
[37m2026-04-01 03:09:15.719[39m[0m[0m	[32m[1mDEBUG[22m[39m[0m[0m	[37musr/lib/node_modules/@getpochi/cli/dist/cli.js:497906[39m[0m[0m[1m[37m	MjpegToMp4[39m[22m[0m[0m	[ffmpeg] stderr:   Metadata:
[37m2026-04-01 03:09:15.719[39m[0m[0m	[32m[1mDEBUG[22m[39m[0m[0m	[37musr/lib/node_modules/@getpochi/cli/dist/cli.js:497906[39m[0m[0m[1m[37m	MjpegToMp4[39m[22m[0m[0m	[ffmpeg] stderr:     encoder         : Lavf60.16.100
[37m2026-04-01 03:09:15.719[39m[0m[0m	[32m[1mDEBUG[22m[39m[0m[0m	[37musr/lib/node_modules/@getpochi/cli/dist/cli.js:497906[39m[0m[0m[1m[37m	MjpegToMp4[39m[22m[0m[0m	[ffmpeg] stderr:   Stream #0:0: Video: h264 (avc1 / 0x31637661), yuv420p(tv, bt470bg/unknown/unknown, progressive), 854x480 [SAR 2560:2559 DAR 13664:7677], q=2-31, 25 fps, 12800 tbn
[37m2026-04-01 03:09:15.719[39m[0m[0m	[32m[1mDEBUG[22m[39m[0m[0m	[37musr/lib/node_modules/@getpochi/cli/dist/cli.js:497906[39m[0m[0m[1m[37m	MjpegToMp4[39m[22m[0m[0m	[ffmpeg] stderr:     Metadata:
[37m2026-04-01 03:09:15.720[39m[0m[0m	[32m[1mDEBUG[22m[39m[0m[0m	[37musr/lib/node_modules/@getpochi/cli/dist/cli.js:497906[39m[0m[0m[1m[37m	MjpegToMp4[39m[22m[0m[0m	[ffmpeg] stderr:       encoder         : Lavc60.31.102 libx264
[37m2026-04-01 03:09:15.720[39m[0m[0m	[32m[1mDEBUG[22m[39m[0m[0m	[37musr/lib/node_modules/@getpochi/cli/dist/cli.js:497906[39m[0m[0m[1m[37m	MjpegToMp4[39m[22m[0m[0m	[ffmpeg] stderr:     Side data:
[37m2026-04-01 03:09:15.720[39m[0m[0m	[32m[1mDEBUG[22m[39m[0m[0m	[37musr/lib/node_modules/@getpochi/cli/dist/cli.js:497906[39m[0m[0m[1m[37m	MjpegToMp4[39m[22m[0m[0m	[ffmpeg] stderr:       cpb: bitrate max/min/avg: 0/0/0 buffer size: 0 vbv_delay: N/A
[37m2026-04-01 03:09:15.720[39m[0m[0m	[32m[1mDEBUG[22m[39m[0m[0m	[37musr/lib/node_modules/@getpochi/cli/dist/cli.js:497906[39m[0m[0m[1m[37m	MjpegToMp4[39m[22m[0m[0m	[ffmpeg] stderr: frame=    0 fps=0.0 q=0.0 size=       0kB time=N/A bitrate=N/A speed=N/A    
[37m2026-04-01 03:09:15.890[39m[0m[0m	[32m[1mDEBUG[22m[39m[0m[0m	[37musr/lib/node_modules/@getpochi/cli/dist/cli.js:497906[39m[0m[0m[1m[37m	MjpegToMp4[39m[22m[0m[0m	[ffmpeg] stderr: [mjpeg @ 0x55ad2abc7100] EOI missing, emulating
[37m2026-04-01 03:09:16.171[39m[0m[0m	[32m[1mDEBUG[22m[39m[0m[0m	[37musr/lib/node_modules/@getpochi/cli/dist/cli.js:497906[39m[0m[0m[1m[37m	MjpegToMp4[39m[22m[0m[0m	[ffmpeg] stderr: [mp4 @ 0x55ad2abc9680] Starting second pass: moving the moov atom to the beginning of the file
[37m2026-04-01 03:09:16.172[39m[0m[0m	[32m[1mDEBUG[22m[39m[0m[0m	[37musr/lib/node_modules/@getpochi/cli/dist/cli.js:497906[39m[0m[0m[1m[37m	MjpegToMp4[39m[22m[0m[0m	[ffmpeg] stderr: [out#0/mp4 @ 0x55ad2abc8dc0] video:59kB audio:0kB subtitle:0kB other streams:0kB global headers:0kB muxing overhead: 15.639614%
[37m2026-04-01 03:09:16.172[39m[0m[0m	[32m[1mDEBUG[22m[39m[0m[0m	[37musr/lib/node_modules/@getpochi/cli/dist/cli.js:497906[39m[0m[0m[1m[37m	MjpegToMp4[39m[22m[0m[0m	[ffmpeg] stderr: frame=  714 fps=0.0 q=-1.0 Lsize=      68kB time=00:00:28.44 bitrate=  19.6kbits/s dup=684 drop=8 speed=60.8x    
[37m2026-04-01 03:09:16.172[39m[0m[0m	[32m[1mDEBUG[22m[39m[0m[0m	[37musr/lib/node_modules/@getpochi/cli/dist/cli.js:497906[39m[0m[0m[1m[37m	MjpegToMp4[39m[22m[0m[0m	[ffmpeg] stderr: [libx264 @ 0x55ad2abc9f80] frame I:4     Avg QP:10.39  size:  8110
[37m2026-04-01 03:09:16.172[39m[0m[0m	[32m[1mDEBUG[22m[39m[0m[0m	[37musr/lib/node_modules/@getpochi/cli/dist/cli.js:497906[39m[0m[0m[1m[37m	MjpegToMp4[39m[22m[0m[0m	[ffmpeg] stderr: [libx264 @ 0x55ad2abc9f80] frame P:180   Avg QP:12.57  size:    79
[37m2026-04-01 03:09:16.172[39m[0m[0m	[32m[1mDEBUG[22m[39m[0m[0m	[37musr/lib/node_modules/@getpochi/cli/dist/cli.js:497906[39m[0m[0m[1m[37m	MjpegToMp4[39m[22m[0m[0m	[ffmpeg] stderr: [libx264 @ 0x55ad2abc9f80] frame B:530   Avg QP:12.74  size:    24
[37m2026-04-01 03:09:16.172[39m[0m[0m	[32m[1mDEBUG[22m[39m[0m[0m	[37musr/lib/node_modules/@getpochi/cli/dist/cli.js:497906[39m[0m[0m[1m[37m	MjpegToMp4[39m[22m[0m[0m	[ffmpeg] stderr: [libx264 @ 0x55ad2abc9f80] consecutive B-frames:  0.8%  0.3%  0.8% 98.0%
[37m2026-04-01 03:09:16.172[39m[0m[0m	[32m[1mDEBUG[22m[39m[0m[0m	[37musr/lib/node_modules/@getpochi/cli/dist/cli.js:497906[39m[0m[0m[1m[37m	MjpegToMp4[39m[22m[0m[0m	[ffmpeg] stderr: [libx264 @ 0x55ad2abc9f80] mb I  I16..4: 89.7%  0.4% 10.0%
[37m2026-04-01 03:09:16.172[39m[0m[0m	[32m[1mDEBUG[22m[39m[0m[0m	[37musr/lib/node_modules/@getpochi/cli/dist/cli.js:497906[39m[0m[0m[1m[37m	MjpegToMp4[39m[22m[0m[0m	[ffmpeg] stderr: [libx264 @ 0x55ad2abc9f80] mb P  I16..4:  0.5%  0.0%  0.0%  P16..4:  0.1%  0.0%  0.0%  0.0%  0.0%    skip:99.4%
[37m2026-04-01 03:09:16.172[39m[0m[0m	[32m[1mDEBUG[22m[39m[0m[0m	[37musr/lib/node_modules/@getpochi/cli/dist/cli.js:497906[39m[0m[0m[1m[37m	MjpegToMp4[39m[22m[0m[0m	[ffmpeg] stderr: [libx264 @ 0x55ad2abc9f80] mb B  I16..4:  0.0%  0.0%  0.0%  B16..8:  0.1%  0.0%  0.0%  direct: 0.0%  skip:99.9%  L0:54.0% L1:45.9% BI: 0.1%
[37m2026-04-01 03:09:16.172[39m[0m[0m	[32m[1mDEBUG[22m[39m[0m[0m	[37musr/lib/node_modules/@getpochi/cli/dist/cli.js:497906[39m[0m[0m[1m[37m	MjpegToMp4[39m[22m[0m[0m	[ffmpeg] stderr: [libx264 @ 0x55ad2abc9f80] 8x8 transform intra:0.3% inter:7.5%
[37m2026-04-01 03:09:16.172[39m[0m[0m	[32m[1mDEBUG[22m[39m[0m[0m	[37musr/lib/node_modules/@getpochi/cli/dist/cli.js:497906[39m[0m[0m[1m[37m	MjpegToMp4[39m[22m[0m[0m	[ffmpeg] stderr: [libx264 @ 0x55ad2abc9f80] coded y,uvDC,uvAC intra: 7.5% 7.3% 6.5% inter: 0.0% 0.0% 0.0%
[37m2026-04-01 03:09:16.172[39m[0m[0m	[32m[1mDEBUG[22m[39m[0m[0m	[37musr/lib/node_modules/@getpochi/cli/dist/cli.js:497906[39m[0m[0m[1m[37m	MjpegToMp4[39m[22m[0m[0m	[ffmpeg] stderr: [libx264 @ 0x55ad2abc9f80] i16 v,h,dc,p: 75% 22%  3%  0%
[37m2026-04-01 03:09:16.172[39m[0m[0m	[32m[1mDEBUG[22m[39m[0m[0m	[37musr/lib/node_modules/@getpochi/cli/dist/cli.js:497906[39m[0m[0m[1m[37m	MjpegToMp4[39m[22m[0m[0m	[ffmpeg] stderr: [libx264 @ 0x55ad2abc9f80] i8 v,h,dc,ddl,ddr,vr,hd,vl,hu: 45% 15% 21%  0%  3%  6%  6%  4%  1%
[37m2026-04-01 03:09:16.172[39m[0m[0m	[32m[1mDEBUG[22m[39m[0m[0m	[37musr/lib/node_modules/@getpochi/cli/dist/cli.js:497906[39m[0m[0m[1m[37m	MjpegToMp4[39m[22m[0m[0m	[ffmpeg] stderr: [libx264 @ 0x55ad2abc9f80] i4 v,h,dc,ddl,ddr,vr,hd,vl,hu: 37% 25% 19%  3%  3%  3%  4%  2%  4%
[37m2026-04-01 03:09:16.172[39m[0m[0m	[32m[1mDEBUG[22m[39m[0m[0m	[37musr/lib/node_modules/@getpochi/cli/dist/cli.js:497906[39m[0m[0m[1m[37m	MjpegToMp4[39m[22m[0m[0m	[ffmpeg] stderr: [libx264 @ 0x55ad2abc9f80] i8c dc,h,v,p: 80% 18%  2%  0%
[37m2026-04-01 03:09:16.172[39m[0m[0m	[32m[1mDEBUG[22m[39m[0m[0m	[37musr/lib/node_modules/@getpochi/cli/dist/cli.js:497906[39m[0m[0m[1m[37m	MjpegToMp4[39m[22m[0m[0m	[ffmpeg] stderr: [libx264 @ 0x55ad2abc9f80] Weighted P-Frames: Y:0.0% UV:0.0%
[37m2026-04-01 03:09:16.172[39m[0m[0m	[32m[1mDEBUG[22m[39m[0m[0m	[37musr/lib/node_modules/@getpochi/cli/dist/cli.js:497906[39m[0m[0m[1m[37m	MjpegToMp4[39m[22m[0m[0m	[ffmpeg] stderr: [libx264 @ 0x55ad2abc9f80] kb/s:16.70
[37m2026-04-01 03:09:16.176[39m[0m[0m	[32m[1mDEBUG[22m[39m[0m[0m	[37musr/lib/node_modules/@getpochi/cli/dist/cli.js:497906[39m[0m[0m[1m[37m	MjpegToMp4[39m[22m[0m[0m	[ffmpeg] stderr: 
[37m2026-04-01 03:09:16.176[39m[0m[0m	[32m[1mDEBUG[22m[39m[0m[0m	[37musr/lib/node_modules/@getpochi/cli/dist/cli.js:497910[39m[0m[0m[1m[37m	MjpegToMp4[39m[22m[0m[0m	[ffmpeg] end
                                                                                                                                                                                                                                                                                                                                                                                                                                                                                                                                                                                                                                                                                                                                                                                                                                                                                                                                                                                                                                                                                                                                                                                                                                                                                                                                                                                                                                                                                                                                                                                                                                                                                                                                                                                                                                                                                                                                                                                                                                                                                                                                                                                                                                                                                                                                                                                                                                                                                                                                                                                                                                                                                                                                                                                                                                                                                                                                                                                                                                                                                                                                                                                                                                                                                                                                                                                                                                                                                                                                                                                                                                                                                                                                                                                                                                                                                                                                                                                                                                                                                                                                                                                                                                                                                                                                                                                                                                                                                                                                                                                                                                                                                                                                                                                                                                                                                                                                                                                                                                                                                                                                                                                                                                                                                                                                                                                                                                                                                                                                                                                                                                                                                                                                                                                                                                                                                                                                                                                                                                                                                                                                                                                                                                                                                                                                                                                                                                                                                                                                                                                                                                                                                                                                                                                                                                                                                             [37m2026-04-01 03:07:14.187[39m[0m[0m	[32m[1mDEBUG[22m[39m[0m[0m	[37musr/lib/node_modules/@getpochi/cli/dist/cli.js:498253[39m[0m[0m[1m[37m	listFiles[39m[22m[0m[0m	handling listFile with dirPath . and recursive [33mfalse[39m
[37m2026-04-01 03:07:18.947[39m[0m[0m	[32m[1mDEBUG[22m[39m[0m[0m	[37musr/lib/node_modules/@getpochi/cli/dist/cli.js:498253[39m[0m[0m[1m[37m	listFiles[39m[22m[0m[0m	handling listFile with dirPath /root and recursive [33mfalse[39m
[37m2026-04-01 03:07:23.931[39m[0m[0m	[32m[1mDEBUG[22m[39m[0m[0m	[37musr/lib/node_modules/@getpochi/cli/dist/cli.js:498280[39m[0m[0m[1m[37m	globFiles[39m[22m[0m[0m	handling globFiles with searchPath: / and pattern **/*.wasp
[37m2026-04-01 03:07:24.009[39m[0m[0m	[32m[1mDEBUG[22m[39m[0m[0m	[37musr/lib/node_modules/@getpochi/cli/dist/cli.js:498092[39m[0m[0m[1m[37m	ignoreWalk[39m[22m[0m[0m	MaxScanItems (10000) reached or exceeded. Halting traversal.
[37m2026-04-01 03:07:24.044[39m[0m[0m	[32m[1mDEBUG[22m[39m[0m[0m	[37musr/lib/node_modules/@getpochi/cli/dist/cli.js:498306[39m[0m[0m[1m[37m	globFiles[39m[22m[0m[0m	Found 1 files matching pattern **/*.wasp
[37m2026-04-01 03:07:32.107[39m[0m[0m	[32m[1mDEBUG[22m[39m[0m[0m	[37musr/lib/node_modules/@getpochi/cli/dist/cli.js:545870[39m[0m[0m[1m[37m	TaskRunner[39m[22m[0m[0m	Starting TaskRunner...
[37m2026-04-01 03:07:32.155[39m[0m[0m	[32m[1mDEBUG[22m[39m[0m[0m	[37musr/lib/node_modules/@getpochi/cli/dist/cli.js:540293[39m[0m[0m[1m[37m	generateTaskTitle[39m[22m[0m[0m	Generating task title, old: null, new: Navigate to http://localhost:3000 and report if the page loads successfully. Do NOT try to start any servers or run any commands. Just navigate and report.
[37m2026-04-01 03:07:48.108[39m[0m[0m	[32m[1mDEBUG[22m[39m[0m[0m	[37musr/lib/node_modules/@getpochi/cli/dist/cli.js:540293[39m[0m[0m[1m[37m	generateTaskTitle[39m[22m[0m[0m	Generating task title, old: Navigate to http://localhost:3000 and report if the page loads successfully. Do NOT try to start any servers or run any commands. Just navigate and report., new: Verify if http://localhost:3000 loads successfully
[37m2026-04-01 03:07:53.466[39m[0m[0m	[32m[1mDEBUG[22m[39m[0m[0m	[37musr/lib/node_modules/@getpochi/cli/dist/cli.js:545482[39m[0m[0m[1m[37m	newTask[39m[22m[0m[0m	Browser stream webSocket connected.
[37m2026-04-01 03:07:53.493[39m[0m[0m	[32m[1mDEBUG[22m[39m[0m[0m	[37musr/lib/node_modules/@getpochi/cli/dist/cli.js:497856[39m[0m[0m[1m[37m	MjpegToMp4[39m[22m[0m[0m	Saved frame 0: 1775012873.486365
[37m2026-04-01 03:08:04.878[39m[0m[0m	[32m[1mDEBUG[22m[39m[0m[0m	[37musr/lib/node_modules/@getpochi/cli/dist/cli.js:497906[39m[0m[0m[1m[37m	MjpegToMp4[39m[22m[0m[0m	[ffmpeg] start: ffmpeg -safe 0 -f concat -i /tmp/pochi-mjpeg2mp4-SgGN4N/frames.ffconcat -y -vcodec libx264 -filter:v scale=854:480:force_original_aspect_ratio=decrease,pad=854:480:(ow-iw)/2:(oh-ih)/2:color=black -pix_fmt yuv420p -movflags +faststart -preset veryfast -crf 23 -an -f mp4 /tmp/pochi-browser-agent-video-f077fdd8-ded3-4a66-911d-a1f400ffe7c8.mp4
[37m2026-04-01 03:08:04.897[39m[0m[0m	[32m[1mDEBUG[22m[39m[0m[0m	[37musr/lib/node_modules/@getpochi/cli/dist/cli.js:497906[39m[0m[0m[1m[37m	MjpegToMp4[39m[22m[0m[0m	[ffmpeg] stderr: ffmpeg version 6.1.1-3ubuntu5 Copyright (c) 2000-2023 the FFmpeg developers
[37m2026-04-01 03:08:04.897[39m[0m[0m	[32m[1mDEBUG[22m[39m[0m[0m	[37musr/lib/node_modules/@getpochi/cli/dist/cli.js:497906[39m[0m[0m[1m[37m	MjpegToMp4[39m[22m[0m[0m	[ffmpeg] stderr:   built with gcc 13 (Ubuntu 13.2.0-23ubuntu3)
[37m2026-04-01 03:08:04.897[39m[0m[0m	[32m[1mDEBUG[22m[39m[0m[0m	[37musr/lib/node_modules/@getpochi/cli/dist/cli.js:497906[39m[0m[0m[1m[37m	MjpegToMp4[39m[22m[0m[0m	[ffmpeg] stderr:   configuration: --prefix=/usr --extra-version=3ubuntu5 --toolchain=hardened --libdir=/usr/lib/x86_64-linux-gnu --incdir=/usr/include/x86_64-linux-gnu --arch=amd64 --enable-gpl --disable-stripping --disable-omx --enable-gnutls --enable-libaom --enable-libass --enable-libbs2b --enable-libcaca --enable-libcdio --enable-libcodec2 --enable-libdav1d --enable-libflite --enable-libfontconfig --enable-libfreetype --enable-libfribidi --enable-libglslang --enable-libgme --enable-libgsm --enable-libharfbuzz --enable-libmp3lame --enable-libmysofa --enable-libopenjpeg --enable-libopenmpt --enable-libopus --enable-librubberband --enable-libshine --enable-libsnappy --enable-libsoxr --enable-libspeex --enable-libtheora --enable-libtwolame --enable-libvidstab --enable-libvorbis --enable-libvpx --enable-libwebp --enable-libx265 --enable-libxml2 --enable-libxvid --enable-libzimg --enable-openal --enable-opencl --enable-opengl --disable-sndio --enable-libvpl --disable-libmfx --enable-libdc1394 --enable-libdrm --enable-libiec61883 --enable-chromaprint --enable-frei0r --enable-ladspa --enable-libbluray --enable-libjack --enable-libpulse --enable-librabbitmq --enable-librist --enable-libsrt --enable-libssh --enable-libsvtav1 --enable-libx264 --enable-libzmq --enable-libzvbi --enable-lv2 --enable-sdl2 --enable-libplacebo --enable-librav1e --enable-pocketsphinx --enable-librsvg --enable-libjxl --enable-shared
[37m2026-04-01 03:08:04.897[39m[0m[0m	[32m[1mDEBUG[22m[39m[0m[0m	[37musr/lib/node_modules/@getpochi/cli/dist/cli.js:497906[39m[0m[0m[1m[37m	MjpegToMp4[39m[22m[0m[0m	[ffmpeg] stderr:   libavutil      58. 29.100 / 58. 29.100
[37m2026-04-01 03:08:04.897[39m[0m[0m	[32m[1mDEBUG[22m[39m[0m[0m	[37musr/lib/node_modules/@getpochi/cli/dist/cli.js:497906[39m[0m[0m[1m[37m	MjpegToMp4[39m[22m[0m[0m	[ffmpeg] stderr:   libavcodec     60. 31.102 / 60. 31.102
[37m2026-04-01 03:08:04.897[39m[0m[0m	[32m[1mDEBUG[22m[39m[0m[0m	[37musr/lib/node_modules/@getpochi/cli/dist/cli.js:497906[39m[0m[0m[1m[37m	MjpegToMp4[39m[22m[0m[0m	[ffmpeg] stderr:   libavformat    60. 16.100 / 60. 16.100
[37m2026-04-01 03:08:04.897[39m[0m[0m	[32m[1mDEBUG[22m[39m[0m[0m	[37musr/lib/node_modules/@getpochi/cli/dist/cli.js:497906[39m[0m[0m[1m[37m	MjpegToMp4[39m[22m[0m[0m	[ffmpeg] stderr:   libavdevice    60.  3.100 / 60.  3.100
[37m2026-04-01 03:08:04.897[39m[0m[0m	[32m[1mDEBUG[22m[39m[0m[0m	[37musr/lib/node_modules/@getpochi/cli/dist/cli.js:497906[39m[0m[0m[1m[37m	MjpegToMp4[39m[22m[0m[0m	[ffmpeg] stderr:   libavfilter     9. 12.100 /  9. 12.100
[37m2026-04-01 03:08:04.898[39m[0m[0m	[32m[1mDEBUG[22m[39m[0m[0m	[37musr/lib/node_modules/@getpochi/cli/dist/cli.js:497906[39m[0m[0m[1m[37m	MjpegToMp4[39m[22m[0m[0m	[ffmpeg] stderr:   libswscale      7.  5.100 /  7.  5.100
[37m2026-04-01 03:08:04.898[39m[0m[0m	[32m[1mDEBUG[22m[39m[0m[0m	[37musr/lib/node_modules/@getpochi/cli/dist/cli.js:497906[39m[0m[0m[1m[37m	MjpegToMp4[39m[22m[0m[0m	[ffmpeg] stderr:   libswresample   4. 12.100 /  4. 12.100
[37m2026-04-01 03:08:04.898[39m[0m[0m	[32m[1mDEBUG[22m[39m[0m[0m	[37musr/lib/node_modules/@getpochi/cli/dist/cli.js:497906[39m[0m[0m[1m[37m	MjpegToMp4[39m[22m[0m[0m	[ffmpeg] stderr:   libpostproc    57.  3.100 / 57.  3.100
[37m2026-04-01 03:08:04.898[39m[0m[0m	[32m[1mDEBUG[22m[39m[0m[0m	[37musr/lib/node_modules/@getpochi/cli/dist/cli.js:497906[39m[0m[0m[1m[37m	MjpegToMp4[39m[22m[0m[0m	[ffmpeg] stderr: Input #0, concat, from '/tmp/pochi-mjpeg2mp4-SgGN4N/frames.ffconcat':
[37m2026-04-01 03:08:04.898[39m[0m[0m	[32m[1mDEBUG[22m[39m[0m[0m	[37musr/lib/node_modules/@getpochi/cli/dist/cli.js:497906[39m[0m[0m[1m[37m	MjpegToMp4[39m[22m[0m[0m	[ffmpeg] stderr:   Duration: N/A, start: 0.000000, bitrate: N/A
[37m2026-04-01 03:08:04.898[39m[0m[0m	[32m[1mDEBUG[22m[39m[0m[0m	[37musr/lib/node_modules/@getpochi/cli/dist/cli.js:497906[39m[0m[0m[1m[37m	MjpegToMp4[39m[22m[0m[0m	[ffmpeg] stderr:   Stream #0:0: Video: mjpeg (Baseline), yuvj420p(pc, bt470bg/unknown/unknown), 1280x720 [SAR 1:1 DAR 16:9], 25 fps, 25 tbr, 25 tbn
[37m2026-04-01 03:08:04.898[39m[0m[0m	[32m[1mDEBUG[22m[39m[0m[0m	[37musr/lib/node_modules/@getpochi/cli/dist/cli.js:497906[39m[0m[0m[1m[37m	MjpegToMp4[39m[22m[0m[0m	[ffmpeg] stderr: Stream mapping:
[37m2026-04-01 03:08:04.898[39m[0m[0m	[32m[1mDEBUG[22m[39m[0m[0m	[37musr/lib/node_modules/@getpochi/cli/dist/cli.js:497906[39m[0m[0m[1m[37m	MjpegToMp4[39m[22m[0m[0m	[ffmpeg] stderr:   Stream #0:0 -> #0:0 (mjpeg (native) -> h264 (libx264))
[37m2026-04-01 03:08:04.898[39m[0m[0m	[32m[1mDEBUG[22m[39m[0m[0m	[37musr/lib/node_modules/@getpochi/cli/dist/cli.js:497906[39m[0m[0m[1m[37m	MjpegToMp4[39m[22m[0m[0m	[ffmpeg] stderr: Press [q] to stop, [?] for help
[37m2026-04-01 03:08:04.901[39m[0m[0m	[32m[1mDEBUG[22m[39m[0m[0m	[37musr/lib/node_modules/@getpochi/cli/dist/cli.js:497906[39m[0m[0m[1m[37m	MjpegToMp4[39m[22m[0m[0m	[ffmpeg] stderr: [swscaler @ 0x5572489eee80] deprecated pixel format used, make sure you did set range correctly
[37m2026-04-01 03:08:04.914[39m[0m[0m	[32m[1mDEBUG[22m[39m[0m[0m	[37musr/lib/node_modules/@getpochi/cli/dist/cli.js:497906[39m[0m[0m[1m[37m	MjpegToMp4[39m[22m[0m[0m	[ffmpeg] stderr:     Last message repeated 3 times
[37m2026-04-01 03:08:04.914[39m[0m[0m	[32m[1mDEBUG[22m[39m[0m[0m	[37musr/lib/node_modules/@getpochi/cli/dist/cli.js:497906[39m[0m[0m[1m[37m	MjpegToMp4[39m[22m[0m[0m	[ffmpeg] stderr: [libx264 @ 0x5572489c8e00] using SAR=2560/2559
[37m2026-04-01 03:08:04.914[39m[0m[0m	[32m[1mDEBUG[22m[39m[0m[0m	[37musr/lib/node_modules/@getpochi/cli/dist/cli.js:497906[39m[0m[0m[1m[37m	MjpegToMp4[39m[22m[0m[0m	[ffmpeg] stderr: [libx264 @ 0x5572489c8e00] using cpu capabilities: MMX2 SSE2Fast SSSE3 SSE4.2 AVX FMA3 BMI2 AVX2
[37m2026-04-01 03:08:04.915[39m[0m[0m	[32m[1mDEBUG[22m[39m[0m[0m	[37musr/lib/node_modules/@getpochi/cli/dist/cli.js:497906[39m[0m[0m[1m[37m	MjpegToMp4[39m[22m[0m[0m	[ffmpeg] stderr: [libx264 @ 0x5572489c8e00] profile High, level 3.0, 4:2:0, 8-bit
[37m2026-04-01 03:08:04.915[39m[0m[0m	[32m[1mDEBUG[22m[39m[0m[0m	[37musr/lib/node_modules/@getpochi/cli/dist/cli.js:497906[39m[0m[0m[1m[37m	MjpegToMp4[39m[22m[0m[0m	[ffmpeg] stderr: [libx264 @ 0x5572489c8e00] 264 - core 164 r3108 31e19f9 - H.264/MPEG-4 AVC codec - Copyleft 2003-2023 - http://www.videolan.org/x264.html - options: cabac=1 ref=1 deblock=1:0:0 analyse=0x3:0x113 me=hex subme=2 psy=1 psy_rd=1.00:0.00 mixed_ref=0 me_range=16 chroma_me=1 trellis=0 8x8dct=1 cqm=0 deadzone=21,11 fast_pskip=1 chroma_qp_offset=0 threads=15 lookahead_threads=3 sliced_threads=0 nr=0 decimate=1 interlaced=0 bluray_compat=0 constrained_intra=0 bframes=3 b_pyramid=2 b_adapt=1 b_bias=0 direct=1 weightb=1 open_gop=0 weightp=1 keyint=250 keyint_min=25 scenecut=40 intra_refresh=0 rc_lookahead=10 rc=crf mbtree=1 crf=23.0 qcomp=0.60 qpmin=0 qpmax=69 qpstep=4 ip_ratio=1.40 aq=1:1.00
[37m2026-04-01 03:08:04.915[39m[0m[0m	[32m[1mDEBUG[22m[39m[0m[0m	[37musr/lib/node_modules/@getpochi/cli/dist/cli.js:497906[39m[0m[0m[1m[37m	MjpegToMp4[39m[22m[0m[0m	[ffmpeg] stderr: Output #0, mp4, to '/tmp/pochi-browser-agent-video-f077fdd8-ded3-4a66-911d-a1f400ffe7c8.mp4':
[37m2026-04-01 03:08:04.915[39m[0m[0m	[32m[1mDEBUG[22m[39m[0m[0m	[37musr/lib/node_modules/@getpochi/cli/dist/cli.js:497906[39m[0m[0m[1m[37m	MjpegToMp4[39m[22m[0m[0m	[ffmpeg] stderr:   Metadata:
[37m2026-04-01 03:08:04.915[39m[0m[0m	[32m[1mDEBUG[22m[39m[0m[0m	[37musr/lib/node_modules/@getpochi/cli/dist/cli.js:497906[39m[0m[0m[1m[37m	MjpegToMp4[39m[22m[0m[0m	[ffmpeg] stderr:     encoder         : Lavf60.16.100
[37m2026-04-01 03:08:04.915[39m[0m[0m	[32m[1mDEBUG[22m[39m[0m[0m	[37musr/lib/node_modules/@getpochi/cli/dist/cli.js:497906[39m[0m[0m[1m[37m	MjpegToMp4[39m[22m[0m[0m	[ffmpeg] stderr:   Stream #0:0: Video: h264 (avc1 / 0x31637661), yuv420p(tv, bt470bg/unknown/unknown, progressive), 854x480 [SAR 2560:2559 DAR 13664:7677], q=2-31, 25 fps, 12800 tbn
[37m2026-04-01 03:08:04.915[39m[0m[0m	[32m[1mDEBUG[22m[39m[0m[0m	[37musr/lib/node_modules/@getpochi/cli/dist/cli.js:497906[39m[0m[0m[1m[37m	MjpegToMp4[39m[22m[0m[0m	[ffmpeg] stderr:     Metadata:
[37m2026-04-01 03:08:04.915[39m[0m[0m	[32m[1mDEBUG[22m[39m[0m[0m	[37musr/lib/node_modules/@getpochi/cli/dist/cli.js:497906[39m[0m[0m[1m[37m	MjpegToMp4[39m[22m[0m[0m	[ffmpeg] stderr:       encoder         : Lavc60.31.102 libx264
[37m2026-04-01 03:08:04.915[39m[0m[0m	[32m[1mDEBUG[22m[39m[0m[0m	[37musr/lib/node_modules/@getpochi/cli/dist/cli.js:497906[39m[0m[0m[1m[37m	MjpegToMp4[39m[22m[0m[0m	[ffmpeg] stderr:     Side data:
[37m2026-04-01 03:08:04.915[39m[0m[0m	[32m[1mDEBUG[22m[39m[0m[0m	[37musr/lib/node_modules/@getpochi/cli/dist/cli.js:497906[39m[0m[0m[1m[37m	MjpegToMp4[39m[22m[0m[0m	[ffmpeg] stderr:       cpb: bitrate max/min/avg: 0/0/0 buffer size: 0 vbv_delay: N/A
[37m2026-04-01 03:08:04.915[39m[0m[0m	[32m[1mDEBUG[22m[39m[0m[0m	[37musr/lib/node_modules/@getpochi/cli/dist/cli.js:497906[39m[0m[0m[1m[37m	MjpegToMp4[39m[22m[0m[0m	[ffmpeg] stderr: frame=    0 fps=0.0 q=0.0 size=       0kB time=N/A bitrate=N/A speed=N/A    
[37m2026-04-01 03:08:04.931[39m[0m[0m	[32m[1mDEBUG[22m[39m[0m[0m	[37musr/lib/node_modules/@getpochi/cli/dist/cli.js:497906[39m[0m[0m[1m[37m	MjpegToMp4[39m[22m[0m[0m	[ffmpeg] stderr: [mp4 @ 0x5572489c8300] Starting second pass: moving the moov atom to the beginning of the file
[37m2026-04-01 03:08:04.931[39m[0m[0m	[32m[1mDEBUG[22m[39m[0m[0m	[37musr/lib/node_modules/@getpochi/cli/dist/cli.js:497906[39m[0m[0m[1m[37m	MjpegToMp4[39m[22m[0m[0m	[ffmpeg] stderr: [out#0/mp4 @ 0x5572489c7e00] video:7kB audio:0kB subtitle:0kB other streams:0kB global headers:0kB muxing overhead: 16.048885%
[37m2026-04-01 03:08:04.931[39m[0m[0m	[32m[1mDEBUG[22m[39m[0m[0m	[37musr/lib/node_modules/@getpochi/cli/dist/cli.js:497906[39m[0m[0m[1m[37m	MjpegToMp4[39m[22m[0m[0m	[ffmpeg] stderr: frame=   26 fps=0.0 q=-1.0 Lsize=       8kB time=00:00:00.92 bitrate=  75.1kbits/s dup=24 drop=0 speed=27.5x    
[37m2026-04-01 03:08:04.932[39m[0m[0m	[32m[1mDEBUG[22m[39m[0m[0m	[37musr/lib/node_modules/@getpochi/cli/dist/cli.js:497906[39m[0m[0m[1m[37m	MjpegToMp4[39m[22m[0m[0m	[ffmpeg] stderr: [libx264 @ 0x5572489c8e00] frame I:1     Avg QP:12.32  size:  5949
[37m2026-04-01 03:08:04.932[39m[0m[0m	[32m[1mDEBUG[22m[39m[0m[0m	[37musr/lib/node_modules/@getpochi/cli/dist/cli.js:497906[39m[0m[0m[1m[37m	MjpegToMp4[39m[22m[0m[0m	[ffmpeg] stderr: [libx264 @ 0x5572489c8e00] frame P:7     Avg QP:17.57  size:    55
[37m2026-04-01 03:08:04.932[39m[0m[0m	[32m[1mDEBUG[22m[39m[0m[0m	[37musr/lib/node_modules/@getpochi/cli/dist/cli.js:497906[39m[0m[0m[1m[37m	MjpegToMp4[39m[22m[0m[0m	[ffmpeg] stderr: [libx264 @ 0x5572489c8e00] frame B:18    Avg QP:12.67  size:    24
[37m2026-04-01 03:08:04.932[39m[0m[0m	[32m[1mDEBUG[22m[39m[0m[0m	[37musr/lib/node_modules/@getpochi/cli/dist/cli.js:497906[39m[0m[0m[1m[37m	MjpegToMp4[39m[22m[0m[0m	[ffmpeg] stderr: [libx264 @ 0x5572489c8e00] consecutive B-frames:  7.7%  0.0%  0.0% 92.3%
[37m2026-04-01 03:08:04.932[39m[0m[0m	[32m[1mDEBUG[22m[39m[0m[0m	[37musr/lib/node_modules/@getpochi/cli/dist/cli.js:497906[39m[0m[0m[1m[37m	MjpegToMp4[39m[22m[0m[0m	[ffmpeg] stderr: [libx264 @ 0x5572489c8e00] mb I  I16..4: 91.5%  0.1%  8.4%
[37m2026-04-01 03:08:04.932[39m[0m[0m	[32m[1mDEBUG[22m[39m[0m[0m	[37musr/lib/node_modules/@getpochi/cli/dist/cli.js:497906[39m[0m[0m[1m[37m	MjpegToMp4[39m[22m[0m[0m	[ffmpeg] stderr: [libx264 @ 0x5572489c8e00] mb P  I16..4:  0.6%  0.0%  0.0%  P16..4:  0.1%  0.0%  0.0%  0.0%  0.0%    skip:99.3%
[37m2026-04-01 03:08:04.932[39m[0m[0m	[32m[1mDEBUG[22m[39m[0m[0m	[37musr/lib/node_modules/@getpochi/cli/dist/cli.js:497906[39m[0m[0m[1m[37m	MjpegToMp4[39m[22m[0m[0m	[ffmpeg] stderr: [libx264 @ 0x5572489c8e00] mb B  I16..4:  0.0%  0.0%  0.0%  B16..8:  0.0%  0.0%  0.0%  direct: 0.0%  skip:100.0%  L0: 0.0% L1:100.0% BI: 0.0%
[37m2026-04-01 03:08:04.932[39m[0m[0m	[32m[1mDEBUG[22m[39m[0m[0m	[37musr/lib/node_modules/@getpochi/cli/dist/cli.js:497906[39m[0m[0m[1m[37m	MjpegToMp4[39m[22m[0m[0m	[ffmpeg] stderr: [libx264 @ 0x5572489c8e00] 8x8 transform intra:0.1% inter:0.0%
[37m2026-04-01 03:08:04.932[39m[0m[0m	[32m[1mDEBUG[22m[39m[0m[0m	[37musr/lib/node_modules/@getpochi/cli/dist/cli.js:497906[39m[0m[0m[1m[37m	MjpegToMp4[39m[22m[0m[0m	[ffmpeg] stderr: [libx264 @ 0x5572489c8e00] coded y,uvDC,uvAC intra: 5.8% 5.3% 4.8% inter: 0.0% 0.0% 0.0%
[37m2026-04-01 03:08:04.932[39m[0m[0m	[32m[1mDEBUG[22m[39m[0m[0m	[37musr/lib/node_modules/@getpochi/cli/dist/cli.js:497906[39m[0m[0m[1m[37m	MjpegToMp4[39m[22m[0m[0m	[ffmpeg] stderr: [libx264 @ 0x5572489c8e00] i16 v,h,dc,p: 83% 13%  3%  0%
[37m2026-04-01 03:08:04.932[39m[0m[0m	[32m[1mDEBUG[22m[39m[0m[0m	[37musr/lib/node_modules/@getpochi/cli/dist/cli.js:497906[39m[0m[0m[1m[37m	MjpegToMp4[39m[22m[0m[0m	[ffmpeg] stderr: [libx264 @ 0x5572489c8e00] i8 v,h,dc,ddl,ddr,vr,hd,vl,hu:  0%  0% 75%  0%  0%  0%  0% 25%  0%
[37m2026-04-01 03:08:04.932[39m[0m[0m	[32m[1mDEBUG[22m[39m[0m[0m	[37musr/lib/node_modules/@getpochi/cli/dist/cli.js:497906[39m[0m[0m[1m[37m	MjpegToMp4[39m[22m[0m[0m	[ffmpeg] stderr: [libx264 @ 0x5572489c8e00] i4 v,h,dc,ddl,ddr,vr,hd,vl,hu: 36% 25% 19%  4%  3%  3%  4%  2%  3%
[37m2026-04-01 03:08:04.932[39m[0m[0m	[32m[1mDEBUG[22m[39m[0m[0m	[37musr/lib/node_modules/@getpochi/cli/dist/cli.js:497906[39m[0m[0m[1m[37m	MjpegToMp4[39m[22m[0m[0m	[ffmpeg] stderr: [libx264 @ 0x5572489c8e00] i8c dc,h,v,p: 88% 11%  1%  0%
[37m2026-04-01 03:08:04.932[39m[0m[0m	[32m[1mDEBUG[22m[39m[0m[0m	[37musr/lib/node_modules/@getpochi/cli/dist/cli.js:497906[39m[0m[0m[1m[37m	MjpegToMp4[39m[22m[0m[0m	[ffmpeg] stderr: [libx264 @ 0x5572489c8e00] Weighted P-Frames: Y:0.0% UV:0.0%
[37m2026-04-01 03:08:04.932[39m[0m[0m	[32m[1mDEBUG[22m[39m[0m[0m	[37musr/lib/node_modules/@getpochi/cli/dist/cli.js:497906[39m[0m[0m[1m[37m	MjpegToMp4[39m[22m[0m[0m	[ffmpeg] stderr: [libx264 @ 0x5572489c8e00] kb/s:51.98
[37m2026-04-01 03:08:04.935[39m[0m[0m	[32m[1mDEBUG[22m[39m[0m[0m	[37musr/lib/node_modules/@getpochi/cli/dist/cli.js:497906[39m[0m[0m[1m[37m	MjpegToMp4[39m[22m[0m[0m	[ffmpeg] stderr: 
[37m2026-04-01 03:08:04.935[39m[0m[0m	[32m[1mDEBUG[22m[39m[0m[0m	[37musr/lib/node_modules/@getpochi/cli/dist/cli.js:497910[39m[0m[0m[1m[37m	MjpegToMp4[39m[22m[0m[0m	[ffmpeg] end
[37m2026-04-01 03:08:17.757[39m[0m[0m	[32m[1mDEBUG[22m[39m[0m[0m	[37musr/lib/node_modules/@getpochi/cli/dist/cli.js:545870[39m[0m[0m[1m[37m	TaskRunner[39m[22m[0m[0m	Starting TaskRunner...
[37m2026-04-01 03:08:17.795[39m[0m[0m	[32m[1mDEBUG[22m[39m[0m[0m	[37musr/lib/node_modules/@getpochi/cli/dist/cli.js:540293[39m[0m[0m[1m[37m	generateTaskTitle[39m[22m[0m[0m	Generating task title, old: null, new: Follow these steps precisely and in order:
[37m2026-04-01 03:09:00.417[39m[0m[0m	[32m[1mDEBUG[22m[39m[0m[0m	[37musr/lib/node_modules/@getpochi/cli/dist/cli.js:540293[39m[0m[0m[1m[37m	generateTaskTitle[39m[22m[0m[0m	Generating task title, old: Follow these steps precisely and in order:, new: Test task priority toggling and persistence
[37m2026-04-01 03:09:04.139[39m[0m[0m	[32m[1mDEBUG[22m[39m[0m[0m	[37musr/lib/node_modules/@getpochi/cli/dist/cli.js:545482[39m[0m[0m[1m[37m	newTask[39m[22m[0m[0m	Browser stream webSocket connected.
[37m2026-04-01 03:09:04.166[39m[0m[0m	[32m[1mDEBUG[22m[39m[0m[0m	[37musr/lib/node_modules/@getpochi/cli/dist/cli.js:497856[39m[0m[0m[1m[37m	MjpegToMp4[39m[22m[0m[0m	Saved frame 0: 1775012944.156505
[37m2026-04-01 03:09:15.314[39m[0m[0m	[32m[1mDEBUG[22m[39m[0m[0m	[37musr/lib/node_modules/@getpochi/cli/dist/cli.js:497856[39m[0m[0m[1m[37m	MjpegToMp4[39m[22m[0m[0m	Saved frame 1: 1775012955.29537
[37m2026-04-01 03:09:15.319[39m[0m[0m	[32m[1mDEBUG[22m[39m[0m[0m	[37musr/lib/node_modules/@getpochi/cli/dist/cli.js:497856[39m[0m[0m[1m[37m	MjpegToMp4[39m[22m[0m[0m	Saved frame 2: 1775012955.305003
[37m2026-04-01 03:09:15.544[39m[0m[0m	[32m[1mDEBUG[22m[39m[0m[0m	[37musr/lib/node_modules/@getpochi/cli/dist/cli.js:497856[39m[0m[0m[1m[37m	MjpegToMp4[39m[22m[0m[0m	Saved frame 3: 1775012955.501634
[37m2026-04-01 03:09:15.544[39m[0m[0m	[32m[1mDEBUG[22m[39m[0m[0m	[37musr/lib/node_modules/@getpochi/cli/dist/cli.js:497856[39m[0m[0m[1m[37m	MjpegToMp4[39m[22m[0m[0m	Saved frame 3: 1775012955.522322
[37m2026-04-01 03:09:15.544[39m[0m[0m	[32m[1mDEBUG[22m[39m[0m[0m	[37musr/lib/node_modules/@getpochi/cli/dist/cli.js:497856[39m[0m[0m[1m[37m	MjpegToMp4[39m[22m[0m[0m	Saved frame 3: 1775012955.493343
[37m2026-04-01 03:09:15.549[39m[0m[0m	[32m[1mDEBUG[22m[39m[0m[0m	[37musr/lib/node_modules/@getpochi/cli/dist/cli.js:497856[39m[0m[0m[1m[37m	MjpegToMp4[39m[22m[0m[0m	Saved frame 6: 1775012955.536942
